<svg width="783" height="801" viewBox="0 0 783 801" fill="none" xmlns="http://www.w3.org/2000/svg">
<path d="M75 47H190V754H75V47Z" fill="url(#paint0_linear_3_87)"/>
<path d="M190 162V47H576V162H190Z" fill="url(#paint1_linear_3_87)"/>
<path d="M190 409V294H576V409H190Z" fill="url(#paint2_linear_3_87)"/>
<path d="M190 754V712H576V754H190Z" fill="url(#paint3_linear_3_87)"/>
<path d="M576 47H691V754H576V47Z" fill="url(#paint4_linear_3_87)"/>
<path d="M686 454H766V587H686V454Z" fill="url(#paint5_linear_3_87)"/>
<path d="M0 454H80V587H0V454Z" fill="url(#paint6_linear_3_87)"/>
<rect width="75" height="136" fill="#151212"/>
<rect x="5" y="665" width="75" height="136" fill="#151212"/>
<rect x="687" width="75" height="136" fill="#151212"/>
<rect x="688" y="665" width="75" height="136" fill="#151212"/>
<rect x="228" y="601" width="192" height="310" transform="rotate(-90 228 601)" fill="#0E0A0A"/>
<rect x="271" y="587" width="164" height="224" transform="rotate(-90 271 587)" fill="#B01515"/>
<rect x="212" y="754" width="345" height="342" transform="rotate(-90 212 754)" fill="#B01515" fill-opacity="0.26"/>
<rect x="696" y="468" width="58" height="244" fill="url(#paint7_linear_3_87)"/>
<rect x="14" y="468" width="58" height="244" fill="url(#paint8_linear_3_87)"/>
<rect x="754" y="471" width="29" height="220" fill="#4BB31B"/>
<rect x="14" y="676" width="61" height="740" transform="rotate(-90 14 676)" fill="#888888"/>
<rect x="271" y="206" width="67" height="133" fill="#DFC53A"/>
<rect x="249" y="339" width="109" height="54" fill="#38889A"/>
<rect x="398" y="339" width="109" height="54" fill="#38889A"/>
<rect x="419" y="206" width="67" height="133" fill="#DFC53A"/>
<rect x="253" y="332" width="120" height="246" transform="rotate(-90 253 332)" fill="#B01515" fill-opacity="0.26"/>
<rect x="342" y="340" width="58" height="227" fill="#49A71C"/>
<rect x="362" y="213" width="18" height="120" rx="7" fill="#49A71C"/>
<rect x="302" y="333" width="146" height="58" fill="#49A71C"/>
<rect x="330" y="561" width="109" height="54" fill="#112E34"/>
<path fill-rule="evenodd" clip-rule="evenodd" d="M371 322.795C371 354.042 411.322 367 441.828 367C487.301 360.089 518.75 319.054 523 271.107C523 240.101 495.801 204.155 474.127 207.179C462.228 235.255 491.126 245.273 491.126 260.308C500.051 300.48 457.553 344.107 411.655 333.74C396.862 333.74 382.983 329.759 371 322.795Z" fill="#49A71C"/>
<path fill-rule="evenodd" clip-rule="evenodd" d="M371 322.795C371 354.042 330.678 367 300.172 367C254.699 360.089 223.25 319.054 219 271.107C219 240.101 246.199 204.155 267.873 207.179C279.772 235.255 250.874 245.273 250.874 260.308C241.949 300.48 284.447 344.107 330.345 333.74C345.138 333.74 359.017 329.759 371 322.795Z" fill="#49A71C"/>
<rect x="411" y="388" width="48" height="30" transform="rotate(-90 411 388)" fill="#112E34"/>
<rect x="309" y="388" width="48" height="30" transform="rotate(-90 309 388)" fill="#112E34"/>
<rect x="371" y="277" width="18" height="120" rx="7" fill="#4BB31B"/>
<rect x="187" y="86" width="18" height="359" rx="7" fill="url(#paint9_linear_3_87)"/>
<rect x="174" y="86" width="6" height="359" rx="3" fill="#3A3A3A"/>
<rect x="576" y="86" width="6" height="359" rx="3" fill="#3A3A3A"/>
<rect x="551" y="86" width="18" height="359" rx="7" fill="url(#paint10_linear_3_87)"/>
<rect x="289" y="390" width="182" height="61" fill="#4BB31B"/>
<path fill-rule="evenodd" clip-rule="evenodd" d="M380 386.795C380 418.042 420.322 431 450.828 431C496.301 424.089 527.75 383.054 532 335.107C532 304.101 504.801 268.155 483.127 271.179C471.228 299.255 500.126 309.273 500.126 324.308C509.051 364.48 466.553 408.107 420.655 397.74C405.862 397.74 391.983 393.759 380 386.795Z" fill="#4BB31B"/>
<path fill-rule="evenodd" clip-rule="evenodd" d="M380 386.795C380 418.042 339.678 431 309.172 431C263.699 424.089 232.25 383.054 228 335.107C228 304.101 255.199 268.155 276.873 271.179C288.772 299.255 259.874 309.273 259.874 324.308C250.949 364.48 293.447 408.107 339.345 397.74C354.138 397.74 368.017 393.759 380 386.795Z" fill="#4BB31B"/>
<rect x="412" y="400" width="48" height="30" fill="#112E34"/>
<rect x="304" y="400" width="48" height="30" fill="#112E34"/>
<rect x="100" y="72" width="67" height="42" fill="#112E34"/>
<rect x="167" y="85" width="49" height="16" fill="#C1C1C1"/>
<rect x="560" y="85" width="49" height="16" fill="#C1C1C1"/>
<rect x="609" y="72" width="67" height="42" fill="#112E34"/>
<rect x="164" y="454" width="18" height="438" rx="7" transform="rotate(-90 164 454)" fill="#C1C1C1"/>
<defs>
<linearGradient id="paint0_linear_3_87" x1="673.5" y1="16.5" x2="125.5" y2="810" gradientUnits="userSpaceOnUse">
<stop stop-color="#9A9A9A"/>
<stop offset="1" stop-color="#656565"/>
</linearGradient>
<linearGradient id="paint1_linear_3_87" x1="673.5" y1="16.5" x2="125.5" y2="810" gradientUnits="userSpaceOnUse">
<stop stop-color="#9A9A9A"/>
<stop offset="1" stop-color="#656565"/>
</linearGradient>
<linearGradient id="paint2_linear_3_87" x1="673.5" y1="16.5" x2="125.5" y2="810" gradientUnits="userSpaceOnUse">
<stop stop-color="#9A9A9A"/>
<stop offset="1" stop-color="#656565"/>
</linearGradient>
<linearGradient id="paint3_linear_3_87" x1="673.5" y1="16.5" x2="125.5" y2="810" gradientUnits="userSpaceOnUse">
<stop stop-color="#9A9A9A"/>
<stop offset="1" stop-color="#656565"/>
</linearGradient>
<linearGradient id="paint4_linear_3_87" x1="673.5" y1="16.5" x2="125.5" y2="810" gradientUnits="userSpaceOnUse">
<stop stop-color="#9A9A9A"/>
<stop offset="1" stop-color="#656565"/>
</linearGradient>
<linearGradient id="paint5_linear_3_87" x1="673.5" y1="16.5" x2="125.5" y2="810" gradientUnits="userSpaceOnUse">
<stop stop-color="#9A9A9A"/>
<stop offset="1" stop-color="#656565"/>
</linearGradient>
<linearGradient id="paint6_linear_3_87" x1="673.5" y1="16.5" x2="125.5" y2="810" gradientUnits="userSpaceOnUse">
<stop stop-color="#9A9A9A"/>
<stop offset="1" stop-color="#656565"/>
</linearGradient>
<linearGradient id="paint7_linear_3_87" x1="725" y1="468" x2="725" y2="712" gradientUnits="userSpaceOnUse">
<stop stop-color="#A8A8A8"/>
<stop offset="1" stop-color="#777777"/>
</linearGradient>
<linearGradient id="paint8_linear_3_87" x1="43" y1="468" x2="43" y2="712" gradientUnits="userSpaceOnUse">
<stop stop-color="#A8A8A8"/>
<stop offset="1" stop-color="#777777"/>
</linearGradient>
<linearGradient id="paint9_linear_3_87" x1="196" y1="86" x2="196" y2="445" gradientUnits="userSpaceOnUse">
<stop stop-color="#3E8D19"/>
<stop offset="1" stop-color="#4EAD21"/>
</linearGradient>
<linearGradient id="paint10_linear_3_87" x1="560" y1="86" x2="560" y2="445" gradientUnits="userSpaceOnUse">
<stop stop-color="#3E8D19"/>
<stop offset="1" stop-color="#4EAD21"/>
</linearGradient>
</defs>
</svg>
